<svg xmlns="http://www.w3.org/2000/svg" width="94" height="94" viewBox="0 0 94 94">
  <g id="careers-form-icon" transform="translate(2935 -2476)">
    <g id="Group_292" data-name="Group 292" transform="translate(-2927.327 2476.853)">
      <path id="Path_340" data-name="Path 340" d="M2999.959,892.844a48.775,48.775,0,0,1,2.228-11.122c.566-1.705,1.225-3.378,1.967-5.042a56.242,56.242,0,0,1,9.331-14.457,45.23,45.23,0,0,1,10.042-8.386,29.835,29.835,0,0,1,6.282-2.652c.3-.075.6-.135.886-.2a2.791,2.791,0,0,1,.6-.118,10.329,10.329,0,0,1,1.123-.161,12.712,12.712,0,0,1,2.33-.076c.262.009.515.035.759.06a13.888,13.888,0,0,1,4.721,1.478c-2.9-1.664-6.729-4.274-10.217-5.879" transform="translate(-2989.875 -812.095)" fill="none" stroke="#484646" stroke-linecap="round" stroke-linejoin="round" stroke-width="1" fill-rule="evenodd"/>
      <path id="Path_341" data-name="Path 341" d="M3032.373,754.132c-3.066-1.765-9.914-6.341-12.7-6.687-13.713-1.7-28.609,27.883-17.05,34.891" transform="translate(-2988.908 -747.375)" fill="none" stroke="#484646" stroke-linecap="round" stroke-linejoin="round" stroke-width="1" fill-rule="evenodd"/>
      <path id="Path_342" data-name="Path 342" d="M3043.178,862.788c-3.41-3.979-8.6-4.719-13.368-3.429-6.853,1.749-13.029,7.053-17.488,12.388-6.629,7.9-11.79,19.016-12.363,29.269" transform="translate(-2989.875 -820.267)" fill="none" stroke="#484646" stroke-linecap="round" stroke-linejoin="round" stroke-width="1" fill-rule="evenodd"/>
      <path id="Path_343" data-name="Path 343" d="M3055.686,774.167c0-4.424-1.545-7.54-4.062-8.993s-6-1.241-9.838.98a30.7,30.7,0,0,0-13.883,24.058c0,4.425,1.562,7.541,4.07,8.994C3040.85,804.332,3055.686,788.194,3055.686,774.167Z" transform="translate(-3008.16 -758.417)" fill="none" stroke="#484646" stroke-linecap="round" stroke-linejoin="round" stroke-width="1" fill-rule="evenodd"/>
      <path id="Path_344" data-name="Path 344" d="M3165.11,867.136l-5.946-3.437-.717-.236" transform="translate(-3093.576 -823.333)" fill="none" stroke="#484646" stroke-linecap="round" stroke-linejoin="round" stroke-width="1" fill-rule="evenodd"/>
      <path id="Path_345" data-name="Path 345" d="M3101.564,862.74a11.427,11.427,0,0,0-4.78-.237c-4.079.633-8.115,3.142-11.164,5.818-7.347,6.41-13.208,17.134-14.009,26.9A19.9,19.9,0,0,0,3073,905.09a10.586,10.586,0,0,0,2.244,3.234" transform="translate(-3036.693 -822.61)" fill="none" stroke="#484646" stroke-linecap="round" stroke-linejoin="round" stroke-width="1" fill-rule="evenodd"/>
      <path id="Path_346" data-name="Path 346" d="M3082.3,995.324l.566.5,5.936,3.437" transform="translate(-3043.754 -909.611)" fill="none" stroke="#484646" stroke-linecap="round" stroke-linejoin="round" stroke-width="1" fill-rule="evenodd"/>
      <path id="Path_347" data-name="Path 347" d="M3093.005,918.748a13.705,13.705,0,0,1-1.08-1.047,12.685,12.685,0,0,1-2.373-4.316c-1.258-4.019-.945-8.858,0-12.911,2.145-9.154,8.293-19.018,16.045-24.4,2.888-2,6.519-3.716,10.074-3.792a10.8,10.8,0,0,1,3.091.388" transform="translate(-3047.954 -829.1)" fill="none" stroke="#484646" stroke-linecap="round" stroke-linejoin="round" stroke-width="1" fill-rule="evenodd"/>
      <path id="Path_348" data-name="Path 348" d="M3107.512,918.273c10.378-5.988,18.807-20.563,18.807-32.553s-8.428-16.864-18.807-10.868-18.8,20.587-18.8,32.579S3097.134,924.269,3107.512,918.273Z" transform="translate(-3047.944 -829.105)" fill="none" stroke="#484646" stroke-linecap="round" stroke-linejoin="round" stroke-width="1" fill-rule="evenodd"/>
      <path id="Path_349" data-name="Path 349" d="M3120.91,894.9v12.2l10.564-6.1v5.683l-4.315,2.491-6.249,3.607v12.193l-4.94,2.846v-12.2l-10.555,6.1v-5.675l10.555-6.105V897.746Z" transform="translate(-3058.876 -843.902)" fill="none" stroke="#484646" stroke-linecap="round" stroke-linejoin="round" stroke-width="1" fill-rule="evenodd"/>
      <path id="Path_350" data-name="Path 350" d="M2990.608,858.724c-11.062,8.47-18.788,22.783-19.819,36.429" transform="translate(-2970.79 -820.232)" fill="none" stroke="#484646" stroke-linecap="round" stroke-linejoin="round" stroke-width="1" fill-rule="evenodd"/>
      <line id="Line_344" data-name="Line 344" x2="10.084" y2="5.828" transform="translate(0 74.921)" fill="none" stroke="#484646" stroke-linecap="round" stroke-linejoin="round" stroke-width="1"/>
      <line id="Line_345" data-name="Line 345" x2="10.1" y2="5.828" transform="translate(13.714 34.961)" fill="none" stroke="#484646" stroke-linecap="round" stroke-linejoin="round" stroke-width="1"/>
      <line id="Line_346" data-name="Line 346" y1="15.142" x2="26.22" transform="translate(10.084 65.607)" fill="none" stroke="#484646" stroke-linecap="round" stroke-linejoin="round" stroke-width="1"/>
      <line id="Line_347" data-name="Line 347" x1="0.16" y2="0.277" transform="translate(71.754 62.188)" fill="none" stroke="#484646" stroke-linecap="round" stroke-miterlimit="10" stroke-width="1"/>
      <line id="Line_348" data-name="Line 348" x1="0.186" y2="0.304" transform="translate(61.173 80.469)" fill="none" stroke="#484646" stroke-linecap="round" stroke-miterlimit="10" stroke-width="1"/>
      <line id="Line_349" data-name="Line 349" x1="3.733" y2="6.485" transform="translate(64.871 60.093)" fill="none" stroke="#484646" stroke-linecap="round" stroke-miterlimit="10" stroke-width="1"/>
      <line id="Line_350" data-name="Line 350" x1="3.759" y2="6.493" transform="translate(57.718 72.465)" fill="none" stroke="#484646" stroke-linecap="round" stroke-miterlimit="10" stroke-width="1"/>
      <line id="Line_351" data-name="Line 351" x1="4.544" y2="7.87" transform="translate(57.516 63.639)" fill="none" stroke="#484646" stroke-linecap="round" stroke-miterlimit="10" stroke-width="1"/>
      <line id="Line_352" data-name="Line 352" x1="3.759" y2="6.495" transform="translate(57.718 56.859)" fill="none" stroke="#484646" stroke-linecap="round" stroke-miterlimit="10" stroke-width="1"/>
      <line id="Line_353" data-name="Line 353" x1="3.733" y2="6.478" transform="translate(51.36 67.895)" fill="none" stroke="#484646" stroke-linecap="round" stroke-miterlimit="10" stroke-width="1"/>
      <line id="Line_354" data-name="Line 354" x1="1.005" y2="1.722" transform="translate(57.803 53.658)" fill="none" stroke="#484646" stroke-linecap="round" stroke-miterlimit="10" stroke-width="1"/>
      <line id="Line_355" data-name="Line 355" x1="1.005" y2="1.706" transform="translate(47.239 71.967)" fill="none" stroke="#484646" stroke-linecap="round" stroke-miterlimit="10" stroke-width="1"/>
      <line id="Line_356" data-name="Line 356" x1="4.72" y1="2.719" transform="translate(35.678 78.392)" fill="none" stroke="#484646" stroke-linecap="round" stroke-miterlimit="10" stroke-width="1"/>
      <line id="Line_357" data-name="Line 357" x1="4.982" y1="2.871" transform="translate(35.899 69.509)" fill="none" stroke="#484646" stroke-linecap="round" stroke-miterlimit="10" stroke-width="1"/>
      <line id="Line_358" data-name="Line 358" x1="5.075" y1="2.922" transform="translate(38.212 61.833)" fill="none" stroke="#484646" stroke-linecap="round" stroke-miterlimit="10" stroke-width="1"/>
      <line id="Line_359" data-name="Line 359" x1="5.083" y1="2.92" transform="translate(41.818 54.909)" fill="none" stroke="#484646" stroke-linecap="round" stroke-miterlimit="10" stroke-width="1"/>
      <line id="Line_360" data-name="Line 360" x1="5.041" y1="2.922" transform="translate(46.64 48.668)" fill="none" stroke="#484646" stroke-linecap="round" stroke-miterlimit="10" stroke-width="1"/>
      <line id="Line_361" data-name="Line 361" x1="4.898" y1="2.82" transform="translate(53.007 43.34)" fill="none" stroke="#484646" stroke-linecap="round" stroke-miterlimit="10" stroke-width="1"/>
      <line id="Line_362" data-name="Line 362" x1="3.471" y1="2.011" transform="translate(63.823 40.56)" fill="none" stroke="#484646" stroke-linecap="round" stroke-miterlimit="10" stroke-width="1"/>
      <line id="Line_363" data-name="Line 363" x1="9.18" y2="15.891" transform="translate(40.01 39.65)" fill="none" stroke="#484646" stroke-linecap="round" stroke-miterlimit="10" stroke-width="1"/>
      <line id="Line_364" data-name="Line 364" x1="5.708" y2="9.88" transform="translate(33.669 56.648)" fill="none" stroke="#484646" stroke-linecap="round" stroke-miterlimit="10" stroke-width="1"/>
      <line id="Line_365" data-name="Line 365" x1="21.144" y2="36.615" transform="translate(19.634 38.594)" fill="none" stroke="#484646" stroke-linecap="round" stroke-miterlimit="10" stroke-width="1"/>
      <line id="Line_366" data-name="Line 366" x1="14.542" y2="25.199" transform="translate(11.806 47.983)" fill="none" stroke="#484646" stroke-linecap="round" stroke-miterlimit="10" stroke-width="1"/>
      <line id="Line_367" data-name="Line 367" x1="9.349" y1="5.397" transform="translate(0.752 71.856)" fill="none" stroke="#484646" stroke-linecap="round" stroke-miterlimit="10" stroke-width="1"/>
      <line id="Line_368" data-name="Line 368" x1="9.374" y1="5.414" transform="translate(1.529 67.802)" fill="none" stroke="#484646" stroke-linecap="round" stroke-miterlimit="10" stroke-width="1"/>
      <line id="Line_369" data-name="Line 369" x1="9.415" y1="5.439" transform="translate(2.619 63.927)" fill="none" stroke="#484646" stroke-linecap="round" stroke-miterlimit="10" stroke-width="1"/>
      <line id="Line_370" data-name="Line 370" x1="9.476" y1="5.464" transform="translate(3.961 60.202)" fill="none" stroke="#484646" stroke-linecap="round" stroke-miterlimit="10" stroke-width="1"/>
      <line id="Line_371" data-name="Line 371" x1="9.5" y1="5.472" transform="translate(5.582 56.631)" fill="none" stroke="#484646" stroke-linecap="round" stroke-miterlimit="10" stroke-width="1"/>
      <line id="Line_372" data-name="Line 372" x1="9.5" y1="5.481" transform="translate(7.448 53.202)" fill="none" stroke="#484646" stroke-linecap="round" stroke-miterlimit="10" stroke-width="1"/>
      <line id="Line_373" data-name="Line 373" x1="9.5" y1="5.481" transform="translate(9.56 49.918)" fill="none" stroke="#484646" stroke-linecap="round" stroke-miterlimit="10" stroke-width="1"/>
      <line id="Line_374" data-name="Line 374" x1="9.474" y1="5.473" transform="translate(11.908 46.767)" fill="none" stroke="#484646" stroke-linecap="round" stroke-miterlimit="10" stroke-width="1"/>
      <line id="Line_375" data-name="Line 375" x1="9.433" y1="5.448" transform="translate(14.542 43.77)" fill="none" stroke="#484646" stroke-linecap="round" stroke-miterlimit="10" stroke-width="1"/>
      <line id="Line_376" data-name="Line 376" x1="9.398" y1="5.421" transform="translate(17.447 40.949)" fill="none" stroke="#484646" stroke-linecap="round" stroke-miterlimit="10" stroke-width="1"/>
      <line id="Line_377" data-name="Line 377" x1="1.984" y1="1.148" transform="translate(27.791 42.41)" fill="none" stroke="#484646" stroke-linecap="round" stroke-miterlimit="10" stroke-width="1"/>
      <line id="Line_378" data-name="Line 378" x1="0.262" y1="0.144" transform="translate(33.086 40.966)" fill="none" stroke="#484646" stroke-linecap="round" stroke-miterlimit="10" stroke-width="1"/>
      <line id="Line_379" data-name="Line 379" x1="0.946" y1="0.548" transform="translate(36.7 38.543)" fill="none" stroke="#484646" stroke-linecap="round" stroke-miterlimit="10" stroke-width="1"/>
      <line id="Line_380" data-name="Line 380" x1="3.85" y1="2.221" transform="translate(39.555 35.68)" fill="none" stroke="#484646" stroke-linecap="round" stroke-miterlimit="10" stroke-width="1"/>
      <line id="Line_381" data-name="Line 381" x1="9.053" y1="5.227" transform="translate(10.387 29.322)" fill="none" stroke="#484646" stroke-linecap="round" stroke-miterlimit="10" stroke-width="1"/>
      <line id="Line_382" data-name="Line 382" x1="9.398" y1="5.439" transform="translate(10.785 20.53)" fill="none" stroke="#484646" stroke-linecap="round" stroke-miterlimit="10" stroke-width="1"/>
      <line id="Line_383" data-name="Line 383" x1="9.373" y1="5.43" transform="translate(13.74 13.218)" fill="none" stroke="#484646" stroke-linecap="round" stroke-miterlimit="10" stroke-width="1"/>
      <line id="Line_384" data-name="Line 384" x1="9.433" y1="5.455" transform="translate(18.19 6.791)" fill="none" stroke="#484646" stroke-linecap="round" stroke-miterlimit="10" stroke-width="1"/>
      <line id="Line_385" data-name="Line 385" x1="9.214" y1="5.32" transform="translate(24.835 1.607)" fill="none" stroke="#484646" stroke-linecap="round" stroke-miterlimit="10" stroke-width="1"/>
    </g>
    <rect id="Rectangle_38" data-name="Rectangle 38" width="94" height="94" transform="translate(-2935 2476)" fill="none"/>
  </g>
</svg>
