<svg xmlns="http://www.w3.org/2000/svg" width="278.633" height="44.895" viewBox="0 0 278.633 44.895"><defs><style>.a,.c{fill-rule:evenodd;}.b{opacity:0.998;}.c{fill:#50b848;}</style></defs><g transform="translate(0.005 0.005)"><g transform="translate(139.843 12.995)"><path class="a" d="M174.58,21.305V19.662h9.312v1.643h-3.785V36.653h-1.731V21.305Z" transform="translate(-174.58 -19.164)"/><path class="a" d="M187.72,19.66h9.736v1.676h-8.039v5.312h7.972V28.3h-7.972v6.671h7.972v1.679H187.72Z" transform="translate(-174.771 -19.165)"/><path class="a" d="M201.77,19.66h1.714V35h6.523v1.649H201.77Z" transform="translate(-174.976 -19.165)"/><path class="a" d="M214.07,19.66h9.736v1.676h-8.039v5.312h7.972V28.3h-7.972v6.671h7.972v1.679H214.07Z" transform="translate(-175.155 -19.165)"/><path class="a" d="M227.34,36.653l2.418-16.99h.276l6.907,13.93L243.78,19.66h.276l2.435,16.993h-1.676L243.14,24.5l-6,12.151h-.424L230.629,24.4l-1.643,12.244Z" transform="translate(-175.348 -19.165)"/><path class="a" d="M258.305,19.66l7.883,16.993h-1.823l-2.66-5.6h-7.322l-2.661,5.6H249.83l8.052-16.99Zm-.216,3.6-2.956,6.159h5.8Z" transform="translate(-175.675 -19.165)"/><path class="a" d="M266.68,21.305V19.662H276v1.643h-3.782V36.653h-1.731V21.305Z" transform="translate(-175.92 -19.164)"/><rect width="1.695" height="16.99" transform="translate(103.463 0.495)"/><path class="a" d="M302.245,22.8l-1.341.99a7.253,7.253,0,0,0-2.66-2.188,7.825,7.825,0,0,0-3.4-.749,7.431,7.431,0,0,0-3.765.99,7.016,7.016,0,0,0-2.689,2.622,7.261,7.261,0,0,0-.99,3.7,6.987,6.987,0,0,0,2.113,5.183,7.4,7.4,0,0,0,5.381,2.079,7.545,7.545,0,0,0,5.97-2.8l1.341.99a8.6,8.6,0,0,1-3.169,2.5,10.032,10.032,0,0,1-4.237.877,8.869,8.869,0,0,1-7.036-2.956,8.967,8.967,0,0,1-2.158-6.05,8.4,8.4,0,0,1,2.612-6.278,9.039,9.039,0,0,1,6.555-2.553,9.559,9.559,0,0,1,4.3.99,8.357,8.357,0,0,1,3.184,2.671Z" transform="translate(-176.194 -19.154)"/><path class="a" d="M305.37,33.47l1.438-.857q1.526,2.8,3.529,2.8a3.4,3.4,0,0,0,1.608-.394,2.956,2.956,0,0,0,1.143-1.065,2.858,2.858,0,0,0,.385-1.429,2.956,2.956,0,0,0-.587-1.7,14.123,14.123,0,0,0-2.956-2.721,14.931,14.931,0,0,1-2.64-2.325,4.226,4.226,0,0,1-.9-2.6,3.941,3.941,0,0,1,.532-2.019,3.734,3.734,0,0,1,1.484-1.438,4.287,4.287,0,0,1,2.1-.532,4.453,4.453,0,0,1,2.237.6,7.4,7.4,0,0,1,2.217,2.188l-1.38,1.045a6.654,6.654,0,0,0-1.643-1.666,2.809,2.809,0,0,0-1.458-.414,2.384,2.384,0,0,0-1.7.63,2.069,2.069,0,0,0-.641,1.538,2.769,2.769,0,0,0,.227,1.075,3.943,3.943,0,0,0,.848,1.123c.216.216.99.788,2.188,1.7a12.338,12.338,0,0,1,3.034,2.9,4.7,4.7,0,0,1,.822,2.553,4.356,4.356,0,0,1-1.389,3.287,4.711,4.711,0,0,1-3.4,1.361,5.07,5.07,0,0,1-2.809-.822,7.666,7.666,0,0,1-2.287-2.828Z" transform="translate(-176.482 -19.158)"/></g><rect class="b" width="1.695" height="27.071" transform="translate(125.917 8.995)"/><g transform="translate(-0.004 -0.005)"><path d="M100.923,2.123c3.88-3.868,7.259-1.585,8.51,0,2.845,3.567,1.594,6.737.1,6.737-1.745,0-1.347-2.227-4.606-2.227-2.207,0-9.562,8.077-12.988,11.968-1.363,1.53-1.888,2.671-1.514,3.709A63.154,63.154,0,0,0,96.8,33.74c1.394,1.847,3.5,3.86,4.741,4.153,3.586.848,6.924-3.963,8.606-6.063.8-1.03,1.307-.206,1.052.927-.892,3.963-5.578,11.406-12.351,9.511-1.9-.547-4.781-2.608-6.869-5.889-1.968-3.067-4.159-6.769-5.3-8.719a1.422,1.422,0,0,0-2.39-.048C82.9,29.421,75.768,38.44,74.971,39.5c-2.064,2.727-3.45,5.39-5.817,5.39-3.713,0-3.108-3.662-1.865-5.033,1.689-1.855,13.968-15.733,15-16.922s1.187-1.823.8-2.711c-1.076-2.766-1.817-4.161-3.187-7.213-1.076-2.378-3.41-1.7-4.876-2.235A3.006,3.006,0,0,1,73.9,6.7c1.068-2.378,4.518-3.535,8.247,0,2.127,2.021,2.869,4.978,4.2,7.443.8,1.506,1.45,2.18,3.028.46C95.019,8.424,98.8,4.2,100.923,2.123ZM20.055,19.561a4.607,4.607,0,0,1,2.781-1.546c2.637,0,2.39,2.822,1.713,5.746-.494,2.188-1.442,6.507-1.777,7.942-.223.888-.43,1.934.04,1.934.717,0,.948-.38,1.689-1.2,5.458-5.984,14.287-15.678,15.339-16.748s2.239-2.219,3.36-2.219a2.742,2.742,0,0,1,2.287,2.917c-.08.793-2.016,1.49-3.657,4.676a31.159,31.159,0,0,0-3.187,9.971c-.749,4.676-.351,7.133,2.207,7.133,3.307,0,10.781-6.713,15.49-12.832.606-.793,1.227-.793,1.4-.246s-.1,1.26-.916,2.576c-6.582,10.565-14.08,14.972-17.96,14.972-3.139,0-5.578-3.305-4.781-9.717.414-3.289,1.363-5.342,1.745-7.443.167-.9-.1-1.094-1-.087-2.892,3.289-11.02,12.4-13.41,14.869-1.657,1.641-2.494,2.378-3.323,2.378-1.4,0-1.052-3.456-.478-7.633.279-2.092.574-4.5.845-6.943.143-1.292.04-2.83-1.49-1.141S7.25,37.727,4.931,40.366c-1.155,1.316-1.873,2.3-3.068,2.3S-.471,40.985.19,37.053C.549,34.921,2.134,25.568,4.525,23.19c2.159-2.148,5.363.507,2.693,3.749-.574.7-.717,1.633-1.418,4.486-.534,2.172-.223,2.845.876,1.7,4.518-4.692,5.92-6.135,10.056-10.4a44.837,44.837,0,0,1,3.323-3.21Z" transform="translate(0.004 0.005)"/><path class="c" d="M79.074,13.574a25.713,25.713,0,0,0-2.988,6.8c-.47,1.594-.7,3.984,3.291,0,4.558-4.558,5.578-4.558,5.578-6.8C84.954,11.478,81.616,9.765,79.074,13.574Z" transform="translate(-15.405 -2.359)"/></g></g></svg>