<svg xmlns="http://www.w3.org/2000/svg" width="94" height="94" viewBox="0 0 94 94">
  <g id="other-form-icon" transform="translate(2193 -2476)">
    <g id="Group_293" data-name="Group 293" transform="translate(-2191.851 2483.18)">
      <path id="Path_351" data-name="Path 351" d="M4003.821,1432.107c0,9.233-.056,14.611,8.9,21.644,25.848,20.359,82.711,10.4,83.246-15.7" transform="translate(-4003.821 -1384.639)" fill="none" stroke="#484646" stroke-linecap="round" stroke-linejoin="round" stroke-width="1" fill-rule="evenodd"/>
      <path id="Path_352" data-name="Path 352" d="M4095.969,1432.131c-.866,20.8-32.544,27.467-50.509,26.472-14.958-.833-40.887-7.883-41.639-26.5" transform="translate(-4003.821 -1384.639)" fill="none" stroke="#484646" stroke-linecap="round" stroke-linejoin="round" stroke-width="1" fill-rule="evenodd"/>
      <path id="Path_353" data-name="Path 353" d="M4017.623,1374.874a1.2,1.2,0,0,0-.284.154c-9.014,5.19-13.517,12.006-13.517,18.813v.349a16.34,16.34,0,0,0,1.391,6.088c.185.462.4.922.646,1.391.178.339.387.712.6,1.051a30.087,30.087,0,0,0,10.842,9.92c.5.291,1.019.575,1.537.842a3.276,3.276,0,0,0,.582.291c.533.275,1.067.542,1.633.793a64.077,64.077,0,0,0,19.963,5.361c.5.072,1.026.136,1.544.169.979.1,1.94.169,2.918.234" transform="translate(-4003.821 -1346.349)" fill="none" stroke="#484646" stroke-linecap="round" stroke-linejoin="round" stroke-width="1" fill-rule="evenodd"/>
      <path id="Path_354" data-name="Path 354" d="M4129.721,1420.868c.737.041,1.488.057,2.216.073.436.024.881.024,1.326.024,10.592.129,21.256-1.851,29.939-5.943.041-.016.065-.04.1-.04.1-.04.178-.1.274-.129,1.077-.542,2.111-1.1,3.129-1.657,6.016-3.461,10.019-7.65,12.016-12.072a5.529,5.529,0,0,0,.307-.767,15.489,15.489,0,0,0,1.188-5.96c0-6.766-4.439-13.551-13.333-18.717" transform="translate(-4088.05 -1346.888)" fill="none" stroke="#484646" stroke-linecap="round" stroke-linejoin="round" stroke-width="1" fill-rule="evenodd"/>
      <path id="Path_355" data-name="Path 355" d="M4094.557,1319.348a37.553,37.553,0,0,1,7.042,2.11,33.981,33.981,0,0,1,5.611,2.942,7.917,7.917,0,0,1,.744.462,1.8,1.8,0,0,1,.219.154c.362.234.7.477,1.051.727s.678.5,1,.777a33.781,33.781,0,0,1,3.419,3.015,37.138,37.138,0,0,1,6.347,8.458,36.344,36.344,0,0,1,1.73,3.557,37.458,37.458,0,0,1,2.782,12.953c-.307,5.247-3.921,10.455-10.859,14.432-14.513,8.385-38.017,8.385-52.514,0-.518-.307-1.011-.615-1.5-.922" transform="translate(-4041.162 -1309.201)" fill="none" stroke="#484646" stroke-linecap="round" stroke-linejoin="round" stroke-width="1" fill-rule="evenodd"/>
      <path id="Path_356" data-name="Path 356" d="M4040.761,1367.973c-5.941-3.8-9.054-8.6-9.338-13.47a36.884,36.884,0,0,1,2.806-12.953,34.59,34.59,0,0,1,1.86-3.823,36.541,36.541,0,0,1,6.194-8.191,36.927,36.927,0,0,1,12.046-8.077,37.646,37.646,0,0,1,7.034-2.11" transform="translate(-4022.287 -1309.201)" fill="none" stroke="#484646" stroke-linecap="round" stroke-linejoin="round" stroke-width="1" fill-rule="evenodd"/>
      <path id="Path_357" data-name="Path 357" d="M4093.038,1327.083c.235-.016.468-.016.7-.016a37.3,37.3,0,0,1,13.437,2.482c.018,0,.018,0,.041.016.017,0,.057,0,.073.025.178.113.349.226.517.339a2.952,2.952,0,0,1,.373.251c.362.234.7.478,1.051.727s.678.5,1,.777a13.325,13.325,0,0,1,1.075.865c.291.226.583.477.866.744.5.444,1,.922,1.479,1.406a35.169,35.169,0,0,1,4.747,5.806c.234.324.444.655.638.979.339.541.647,1.1.962,1.673a36.3,36.3,0,0,1,1.73,3.557,37.458,37.458,0,0,1,2.782,12.953c-.307,5.247-3.921,10.455-10.859,14.432-14.513,8.385-38.017,8.385-52.514,0-.518-.307-1.011-.615-1.5-.922" transform="translate(-4041.162 -1314.366)" fill="none" stroke="#484646" stroke-linecap="round" stroke-linejoin="round" stroke-width="1" fill-rule="evenodd"/>
      <path id="Path_358" data-name="Path 358" d="M4055.405,1376.013a32.543,32.543,0,0,1-2.093-11.569,33.39,33.39,0,0,1,9.978-23.756,36.028,36.028,0,0,1,15.968-9.322" transform="translate(-4036.932 -1317.241)" fill="none" stroke="#484646" stroke-linecap="round" stroke-linejoin="round" stroke-width="1" fill-rule="evenodd"/>
      <path id="Path_359" data-name="Path 359" d="M4125.253,1289.266a7.807,7.807,0,0,0-2.468,1.657,7.455,7.455,0,0,0-1.649,2.474,7.636,7.636,0,0,0,0,5.805,7.507,7.507,0,0,0,1.649,2.482,7.588,7.588,0,0,0,8.289,1.649,7.668,7.668,0,0,0,2.458-1.649,7.537,7.537,0,0,0,1.657-2.482,7.636,7.636,0,0,0,0-5.805,7.485,7.485,0,0,0-1.657-2.474,7.676,7.676,0,0,0-2.458-1.657,7.671,7.671,0,0,0-5.821,0Z" transform="translate(-4081.923 -1288.692)" fill="none" stroke="#484646" stroke-linecap="round" stroke-linejoin="round" stroke-width="1" fill-rule="evenodd"/>
      <line id="Line_386" data-name="Line 386" y1="5.919" transform="translate(92.149 47.492)" fill="none" stroke="#484646" stroke-linecap="round" stroke-linejoin="round" stroke-width="1"/>
      <line id="Line_387" data-name="Line 387" x1="4.81" y2="8.335" transform="translate(81.613 61.432)" fill="none" stroke="#484646" stroke-linecap="round" stroke-miterlimit="10" stroke-width="1"/>
      <line id="Line_388" data-name="Line 388" x1="3.517" y2="6.097" transform="translate(69.542 69.63)" fill="none" stroke="#484646" stroke-linecap="round" stroke-miterlimit="10" stroke-width="1"/>
      <line id="Line_389" data-name="Line 389" x1="3.129" y2="5.424" transform="translate(59.435 72.881)" fill="none" stroke="#484646" stroke-linecap="round" stroke-miterlimit="10" stroke-width="1"/>
      <line id="Line_390" data-name="Line 390" x1="2.943" y2="5.093" transform="translate(50.169 74.304)" fill="none" stroke="#484646" stroke-linecap="round" stroke-miterlimit="10" stroke-width="1"/>
      <line id="Line_391" data-name="Line 391" x1="2.806" y2="4.844" transform="translate(41.502 74.611)" fill="none" stroke="#484646" stroke-linecap="round" stroke-miterlimit="10" stroke-width="1"/>
      <line id="Line_392" data-name="Line 392" x1="2.676" y2="4.634" transform="translate(33.368 73.98)" fill="none" stroke="#484646" stroke-linecap="round" stroke-miterlimit="10" stroke-width="1"/>
      <line id="Line_393" data-name="Line 393" x1="2.524" y2="4.366" transform="translate(25.719 72.533)" fill="none" stroke="#484646" stroke-linecap="round" stroke-miterlimit="10" stroke-width="1"/>
      <line id="Line_394" data-name="Line 394" x1="2.304" y2="3.995" transform="translate(18.587 70.309)" fill="none" stroke="#484646" stroke-linecap="round" stroke-miterlimit="10" stroke-width="1"/>
      <line id="Line_395" data-name="Line 395" x1="1.98" y2="3.435" transform="translate(12.039 67.294)" fill="none" stroke="#484646" stroke-linecap="round" stroke-miterlimit="10" stroke-width="1"/>
      <line id="Line_396" data-name="Line 396" x1="1.602" y2="2.782" transform="translate(6.152 63.178)" fill="none" stroke="#484646" stroke-linecap="round" stroke-miterlimit="10" stroke-width="1"/>
      <line id="Line_397" data-name="Line 397" x1="0.824" y2="1.423" transform="translate(1.658 57.373)" fill="none" stroke="#484646" stroke-linecap="round" stroke-miterlimit="10" stroke-width="1"/>
      <line id="Line_398" data-name="Line 398" x1="4.81" y1="8.329" transform="translate(11.247 35.575)" fill="none" stroke="#484646" stroke-linecap="round" stroke-miterlimit="10" stroke-width="1"/>
      <line id="Line_399" data-name="Line 399" x1="3.679" y1="6.347" transform="translate(15.086 27.288)" fill="none" stroke="#484646" stroke-linecap="round" stroke-miterlimit="10" stroke-width="1"/>
      <line id="Line_400" data-name="Line 400" x1="3.095" y1="5.361" transform="translate(20.068 20.965)" fill="none" stroke="#484646" stroke-linecap="round" stroke-miterlimit="10" stroke-width="1"/>
      <line id="Line_401" data-name="Line 401" x1="2.676" y1="4.61" transform="translate(25.914 16.145)" fill="none" stroke="#484646" stroke-linecap="round" stroke-miterlimit="10" stroke-width="1"/>
      <line id="Line_402" data-name="Line 402" x1="2.248" y1="3.92" transform="translate(32.542 12.662)" fill="none" stroke="#484646" stroke-linecap="round" stroke-miterlimit="10" stroke-width="1"/>
    </g>
    <rect id="Rectangle_40" data-name="Rectangle 40" width="94" height="94" transform="translate(-2193 2476)" fill="none"/>
  </g>
</svg>
