<svg xmlns="http://www.w3.org/2000/svg" width="94" height="94" viewBox="0 0 94 94">
  <g id="product-form-user" transform="translate(3994 -3217)">
    <g id="Group_356" data-name="Group 356" transform="translate(-5890.355 380.773)">
      <path id="Path_379" data-name="Path 379" d="M2083.731,3001.669c.014-7.254-8.947-9.888-15.108-10.411-.535,1.067-1.066,2.125-1.623,3.157,4.841,8.712.709,27.347-4.654,35.206,12.129-6.993,21.385-16.228,21.385-18.9" transform="translate(-108.487 -109.953)" fill="none" stroke="#484646" stroke-linecap="round" stroke-linejoin="round" stroke-width="1" fill-rule="evenodd"/>
      <path id="Path_380" data-name="Path 380" d="M1928.9,3020.013c-3.108,4.022-7.392,7.028-10.823,10.754-3.053,3.452-5.474,6.657-5.983,11.38-.1,2.7-.035,5.509-.035,8.218s.344,3.439,3.322,5.151c9.593,5.542,21.757,3.135,32.643-1.913-6.635-6.256-5.213-13.532-8.121-20.222" transform="translate(-0.493 -130.614)" fill="none" stroke="#484646" stroke-linecap="round" stroke-linejoin="round" stroke-width="1" fill-rule="evenodd"/>
      <path id="Path_381" data-name="Path 381" d="M1973.375,3021.565l-.295-.262-1.093-1.244" transform="translate(-43.564 -130.647)" fill="none" stroke="#484646" stroke-linecap="round" stroke-linejoin="round" stroke-width="1" fill-rule="evenodd"/>
      <path id="Path_382" data-name="Path 382" d="M1971.988,3005.123c.474-.6,1.828-2.008,2.206-2.647a5.356,5.356,0,0,0,.833-2.8c0-.11.021-.255.034-.406.021.014.034.048.068.062" transform="translate(-43.565 -115.712)" fill="none" stroke="#484646" stroke-linecap="round" stroke-linejoin="round" stroke-width="1" fill-rule="evenodd"/>
      <path id="Path_383" data-name="Path 383" d="M1983.147,2999.492v.02h.015" transform="translate(-51.582 -115.87)" fill="none" stroke="#484646" stroke-linecap="round" stroke-linejoin="round" stroke-width="1" fill-rule="evenodd"/>
      <path id="Path_384" data-name="Path 384" d="M1983.2,2999.565c.1.116.193.227.31.344a4.03,4.03,0,0,0,.322.344" transform="translate(-51.62 -115.922)" fill="none" stroke="#484646" stroke-linecap="round" stroke-linejoin="round" stroke-width="1" fill-rule="evenodd"/>
      <path id="Path_385" data-name="Path 385" d="M2065.837,2954.307c2.386-2.311,4.333-6.492,6.189-10.3,2.536-5.2,2.406-11.133,2.441-15.919" transform="translate(-110.996 -64.565)" fill="none" stroke="#484646" stroke-linecap="round" stroke-linejoin="round" stroke-width="1" fill-rule="evenodd"/>
      <path id="Path_386" data-name="Path 386" d="M2048.7,2898.289a14.918,14.918,0,0,1-.358-3.61c-.034-1.553-.068-3-.853-3.726-1.293-1.183-3.321.618-5.707,2.73a34.26,34.26,0,0,1-5.294,4.084,20.564,20.564,0,0,1-5.309,2.029" transform="translate(-86.09 -37.613)" fill="none" stroke="#484646" stroke-linecap="round" stroke-linejoin="round" stroke-width="1" fill-rule="evenodd"/>
      <path id="Path_387" data-name="Path 387" d="M1992.186,2923.326a10.327,10.327,0,0,0-4.14,1.76c-1.781,1.52-1.7,2.73-1.671,4.89a24.01,24.01,0,0,1-1.107,8.39,14.151,14.151,0,0,0-.832-3.239c-2.262-5.447-7.64-3.549-7.524,1.636a8.633,8.633,0,0,0,.2,1.567,19.074,19.074,0,0,0,1.808,4.368,3.941,3.941,0,0,1-.255,2.09c4.56,5.165,11.182,8.7,16.442,8.7a10.526,10.526,0,0,0,6.835-2.6" transform="translate(-47.102 -61.144)" fill="none" stroke="#484646" stroke-linecap="round" stroke-linejoin="round" stroke-width="1" fill-rule="evenodd"/>
      <path id="Path_388" data-name="Path 388" d="M1957.382,2882.091c-4.223,7.715-1.576,28.819,5.687,33.392.144-.392.639-1.912.371-2.413a19.08,19.08,0,0,1-1.808-4.368c-1.568-6.965,6.7-10.217,8.155.035a24.009,24.009,0,0,0,1.107-8.389c-.028-2.159-.11-3.369,1.671-4.89a10.317,10.317,0,0,1,4.14-1.76" transform="translate(-31.621 -31.517)" fill="none" stroke="#484646" stroke-linecap="round" stroke-linejoin="round" stroke-width="1" fill-rule="evenodd"/>
      <path id="Path_389" data-name="Path 389" d="M2000.243,2863.522a58.273,58.273,0,0,0-.365-11.676c-.99-6.876-4.084-7.145-12.569-11.636a12.273,12.273,0,0,0-5.749-1.979c-6.4-.2-15.877,7.255-19.027,12.344" transform="translate(-36.77)" fill="none" stroke="#484646" stroke-linecap="round" stroke-linejoin="round" stroke-width="1" fill-rule="evenodd"/>
      <path id="Path_390" data-name="Path 390" d="M1993.755,3027.089c-10.521-.95-16.332-1.19-21.819-7.076,3.445,3.906,9.056,8.9,11,13.368,2.908,6.69,1.485,13.966,8.121,20.222" transform="translate(-43.527 -130.614)" fill="none" stroke="#484646" stroke-linecap="round" stroke-linejoin="round" stroke-width="1" fill-rule="evenodd"/>
      <path id="Path_391" data-name="Path 391" d="M2052.817,3045.049l.867,1.7.049.082" transform="translate(-101.641 -148.603)" fill="none" stroke="#484646" stroke-linecap="round" stroke-linejoin="round" stroke-width="1" fill-rule="evenodd"/>
      <path id="Path_392" data-name="Path 392" d="M1985.812,3056.776l3.088,7.254-.819,2.978,8.65,13.024" transform="translate(-53.497 -157.028)" fill="none" stroke="#484646" stroke-linecap="round" stroke-linejoin="round" stroke-width="1" fill-rule="evenodd"/>
      <path id="Path_393" data-name="Path 393" d="M2089.376,3017.227l.282,7.667,1.534,1.761-3.418,14.028" transform="translate(-126.757 -128.612)" fill="none" stroke="#484646" stroke-linecap="round" stroke-linejoin="round" stroke-width="1" fill-rule="evenodd"/>
      <path id="Path_394" data-name="Path 394" d="M2050.676,2957.768a6.52,6.52,0,0,1-2.915,5.033" transform="translate(-98.008 -85.891)" fill="none" stroke="#484646" stroke-linecap="round" stroke-linejoin="round" stroke-width="1" fill-rule="evenodd"/>
      <path id="Path_395" data-name="Path 395" d="M2064.961,2957.108a1.776,1.776,0,0,1-2.91-1.684" transform="translate(-108.275 -84.207)" fill="none" stroke="#484646" stroke-linecap="round" stroke-linejoin="round" stroke-width="1" fill-rule="evenodd"/>
      <path id="Path_396" data-name="Path 396" d="M2055.775,3035.6l.034-.047,6.23-6.086" transform="translate(-103.766 -137.405)" fill="none" stroke="#484646" stroke-linecap="round" stroke-linejoin="round" stroke-width="1" fill-rule="evenodd"/>
      <path id="Path_397" data-name="Path 397" d="M2015.246,3055.083l8.733-.117h.013" transform="translate(-74.646 -155.728)" fill="none" stroke="#484646" stroke-linecap="round" stroke-linejoin="round" stroke-width="1" fill-rule="evenodd"/>
      <line id="Line_403" data-name="Line 403" y1="9.056" transform="translate(1975.244 2891.716)" fill="none" stroke="#484646" stroke-linecap="round" stroke-linejoin="round" stroke-width="1"/>
      <line id="Line_404" data-name="Line 404" x1="0.867" y1="2.846" transform="translate(1962.605 2860.676)" fill="none" stroke="#484646" stroke-linecap="round" stroke-linejoin="round" stroke-width="1"/>
      <line id="Line_405" data-name="Line 405" y1="3.322" x2="6.326" transform="translate(1947.532 2919.668)" fill="none" stroke="#484646" stroke-linecap="round" stroke-linejoin="round" stroke-width="1"/>
      <path id="Path_399" data-name="Path 399" d="M2059.433,3003.642c.522,4.986-3.494,7.372-7.372,11.264" transform="translate(-101.098 -118.852)" fill="none" stroke="#484646" stroke-linecap="round" stroke-linejoin="round" stroke-width="1" fill-rule="evenodd"/>
      <path id="Path_400" data-name="Path 400" d="M2046.293,3054.916c-.014-.02-.014-.02,0-.02" transform="translate(-96.946 -155.678)" fill="none" stroke="#484646" stroke-linecap="round" stroke-linejoin="round" stroke-width="1" fill-rule="evenodd"/>
      <line id="Line_406" data-name="Line 406" y1="2.352" x2="0.771" transform="translate(1949.347 2896.866)" fill="none" stroke="#484646" stroke-linecap="round" stroke-linejoin="round" stroke-width="1"/>
      <line id="Line_407" data-name="Line 407" y1="0.014" transform="translate(1948.598 2901.563)" fill="none" stroke="#484646" stroke-linecap="round" stroke-linejoin="round" stroke-width="1"/>
      <line id="Line_408" data-name="Line 408" y2="4.731" transform="translate(1952.669 2867.146)" fill="none" stroke="#484646" stroke-linecap="round" stroke-linejoin="round" stroke-width="1"/>
      <line id="Line_409" data-name="Line 409" x1="6.126" y2="3.549" transform="translate(1943.627 2876.911)" fill="none" stroke="#484646" stroke-linecap="round" stroke-linejoin="round" stroke-width="1"/>
      <path id="Path_401" data-name="Path 401" d="M2022.486,2988.256a1.426,1.426,0,0,1-1.375.123" transform="translate(-78.86 -107.797)" fill="none" stroke="#484646" stroke-linecap="round" stroke-linejoin="round" stroke-width="1" fill-rule="evenodd"/>
      <line id="Line_410" data-name="Line 410" x1="0.013" transform="translate(1942.238 2880.583)" fill="none" stroke="#484646" stroke-linecap="round" stroke-linejoin="round" stroke-width="1"/>
      <path id="Path_402" data-name="Path 402" d="M2019.641,2985.481a1.38,1.38,0,0,1-.558-1.258" transform="translate(-77.403 -104.899)" fill="none" stroke="#484646" stroke-linecap="round" stroke-linejoin="round" stroke-width="1" fill-rule="evenodd"/>
      <line id="Line_411" data-name="Line 411" y1="4.772" transform="translate(1941.68 2874.553)" fill="none" stroke="#484646" stroke-linecap="round" stroke-linejoin="round" stroke-width="1"/>
      <path id="Path_403" data-name="Path 403" d="M2019.083,2963.235a1.423,1.423,0,0,1,.9-1.582" transform="translate(-77.403 -88.682)" fill="none" stroke="#484646" stroke-linecap="round" stroke-linejoin="round" stroke-width="1" fill-rule="evenodd"/>
      <line id="Line_412" data-name="Line 412" y1="0.509" x2="0.866" transform="translate(1942.582 2872.462)" fill="none" stroke="#484646" stroke-linecap="round" stroke-linejoin="round" stroke-width="1"/>
      <path id="Path_404" data-name="Path 404" d="M2025.36,2946.277c3.267-1.878,6.182-3.563,9.221-5.317" transform="translate(-81.913 -73.814)" fill="none" stroke="#484646" stroke-linecap="round" stroke-linejoin="round" stroke-width="1" fill-rule="evenodd"/>
      <path id="Path_405" data-name="Path 405" d="M2062.051,2925.038c3.156-1.816,5.852-3.384,9.255-5.33" transform="translate(-108.275 -58.544)" fill="none" stroke="#484646" stroke-linecap="round" stroke-linejoin="round" stroke-width="1" fill-rule="evenodd"/>
      <line id="Line_413" data-name="Line 413" y1="0.406" x2="0.702" transform="translate(1963.031 2860.758)" fill="none" stroke="#484646" stroke-linecap="round" stroke-linejoin="round" stroke-width="1"/>
      <path id="Path_406" data-name="Path 406" d="M2097.425,2917.547c.667-.378.915-.509,1.032.474" transform="translate(-133.692 -56.79)" fill="none" stroke="#484646" stroke-linecap="round" stroke-linejoin="round" stroke-width="1" fill-rule="evenodd"/>
      <line id="Line_414" data-name="Line 414" y2="4.773" transform="translate(1964.765 2861.232)" fill="none" stroke="#484646" stroke-linecap="round" stroke-linejoin="round" stroke-width="1"/>
      <path id="Path_407" data-name="Path 407" d="M2099.614,2936.905a4.149,4.149,0,0,1-.578,1.912" transform="translate(-134.849 -70.901)" fill="none" stroke="#484646" stroke-linecap="round" stroke-linejoin="round" stroke-width="1" fill-rule="evenodd"/>
      <path id="Path_408" data-name="Path 408" d="M2095.545,2943.7a4.078,4.078,0,0,1-1.368,1.458" transform="translate(-131.358 -75.781)" fill="none" stroke="#484646" stroke-linecap="round" stroke-linejoin="round" stroke-width="1" fill-rule="evenodd"/>
      <line id="Line_415" data-name="Line 415" x1="6.134" y2="3.527" transform="translate(1956.685 2869.374)" fill="none" stroke="#484646" stroke-linecap="round" stroke-linejoin="round" stroke-width="1"/>
      <line id="Line_416" data-name="Line 416" y1="4.724" transform="translate(1953.776 2866.494)" fill="none" stroke="#484646" stroke-linecap="round" stroke-linejoin="round" stroke-width="1"/>
      <line id="Line_417" data-name="Line 417" y1="0.536" x2="0.11" transform="translate(1931.483 2870.468)" fill="none" stroke="#484646" stroke-linecap="round" stroke-linejoin="round" stroke-width="1"/>
      <path id="Path_409" data-name="Path 409" d="M1983.247,2950.69c.179-.833,1.052-.983,1.836-.639" transform="translate(-51.654 -80.222)" fill="none" stroke="#484646" stroke-linecap="round" stroke-linejoin="round" stroke-width="1" fill-rule="evenodd"/>
      <line id="Line_418" data-name="Line 418" x2="7.894" y2="3.581" transform="translate(1933.429 2869.829)" fill="none" stroke="#484646" stroke-linecap="round" stroke-linejoin="round" stroke-width="1"/>
      <line id="Line_419" data-name="Line 419" y1="0.653" x2="1.107" transform="translate(1952.669 2866.494)" fill="none" stroke="#484646" stroke-linecap="round" stroke-linejoin="round" stroke-width="1"/>
      <path id="Path_410" data-name="Path 410" d="M2077.292,3029.465c-.131,2.358-.558,4.855-.034,7.571" transform="translate(-119.019 -137.405)" fill="none" stroke="#484646" stroke-linecap="round" stroke-linejoin="round" stroke-width="1" fill-rule="evenodd"/>
      <line id="Line_420" data-name="Line 420" x1="5.343" y2="2.056" transform="translate(1952.895 2899.631)" fill="none" stroke="#484646" stroke-linecap="round" stroke-linejoin="round" stroke-width="1"/>
      <line id="Line_421" data-name="Line 421" x1="7.488" y2="4.807" transform="translate(1942.251 2903.144)" fill="none" stroke="#484646" stroke-linecap="round" stroke-linejoin="round" stroke-width="1"/>
      <path id="Path_411" data-name="Path 411" d="M2016.9,3063.978c.475-3.06.082-6.408-1.651-8.6" transform="translate(-74.646 -156.027)" fill="none" stroke="#484646" stroke-linecap="round" stroke-linejoin="round" stroke-width="1" fill-rule="evenodd"/>
      <path id="Path_412" data-name="Path 412" d="M2046.411,3055.611c3.218-1.376,1.554-5.578-.523-4.828C2042.4,3052.076,2043.027,3057.061,2046.411,3055.611Z" transform="translate(-94.986 -152.659)" fill="none" stroke="#484646" stroke-linecap="round" stroke-linejoin="round" stroke-width="1" fill-rule="evenodd"/>
      <path id="Path_413" data-name="Path 413" d="M2053.7,3068.161a89.008,89.008,0,0,1,0,17.947" transform="translate(-102.275 -165.209)" fill="none" stroke="#484646" stroke-linecap="round" stroke-linejoin="round" stroke-width="1" fill-rule="evenodd"/>
      <line id="Line_422" data-name="Line 422" x1="2.764" y1="1.588" transform="translate(1927.721 2878.458)" fill="none" stroke="#484646" stroke-linecap="round" stroke-miterlimit="10" stroke-width="1"/>
      <line id="Line_423" data-name="Line 423" x1="3.397" y1="1.96" transform="translate(1925.954 2873.769)" fill="none" stroke="#484646" stroke-linecap="round" stroke-miterlimit="10" stroke-width="1"/>
      <line id="Line_424" data-name="Line 424" x1="5.268" y1="3.019" transform="translate(1924.908 2869.504)" fill="none" stroke="#484646" stroke-linecap="round" stroke-miterlimit="10" stroke-width="1"/>
      <line id="Line_425" data-name="Line 425" x1="7.371" y1="4.27" transform="translate(1924.304 2865.462)" fill="none" stroke="#484646" stroke-linecap="round" stroke-miterlimit="10" stroke-width="1"/>
      <line id="Line_426" data-name="Line 426" x1="15.382" y1="8.877" transform="translate(1923.83 2861.542)" fill="none" stroke="#484646" stroke-linecap="round" stroke-miterlimit="10" stroke-width="1"/>
      <line id="Line_427" data-name="Line 427" x1="15.348" y1="8.856" transform="translate(1923.946 2857.932)" fill="none" stroke="#484646" stroke-linecap="round" stroke-miterlimit="10" stroke-width="1"/>
      <line id="Line_428" data-name="Line 428" x1="16.51" y1="9.531" transform="translate(1924.386 2854.514)" fill="none" stroke="#484646" stroke-linecap="round" stroke-miterlimit="10" stroke-width="1"/>
      <line id="Line_429" data-name="Line 429" x1="19.076" y1="11.016" transform="translate(1925.252 2851.344)" fill="none" stroke="#484646" stroke-linecap="round" stroke-miterlimit="10" stroke-width="1"/>
      <line id="Line_430" data-name="Line 430" x1="21.695" y1="12.522" transform="translate(1926.903 2848.628)" fill="none" stroke="#484646" stroke-linecap="round" stroke-miterlimit="10" stroke-width="1"/>
      <line id="Line_431" data-name="Line 431" x1="22.863" y1="13.196" transform="translate(1929.097 2846.221)" fill="none" stroke="#484646" stroke-linecap="round" stroke-miterlimit="10" stroke-width="1"/>
      <line id="Line_432" data-name="Line 432" x1="23.064" y1="13.306" transform="translate(1931.613 2844)" fill="none" stroke="#484646" stroke-linecap="round" stroke-miterlimit="10" stroke-width="1"/>
      <line id="Line_433" data-name="Line 433" x1="0.179" y1="0.102" transform="translate(1962.866 2858.386)" fill="none" stroke="#484646" stroke-linecap="round" stroke-miterlimit="10" stroke-width="1"/>
      <line id="Line_434" data-name="Line 434" x1="22.755" y1="13.127" transform="translate(1934.439 2841.972)" fill="none" stroke="#484646" stroke-linecap="round" stroke-miterlimit="10" stroke-width="1"/>
      <line id="Line_435" data-name="Line 435" x1="0.227" y1="0.13" transform="translate(1962.639 2854.576)" fill="none" stroke="#484646" stroke-linecap="round" stroke-miterlimit="10" stroke-width="1"/>
      <line id="Line_436" data-name="Line 436" x1="22.424" y1="12.949" transform="translate(1937.63 2840.142)" fill="none" stroke="#484646" stroke-linecap="round" stroke-miterlimit="10" stroke-width="1"/>
      <line id="Line_437" data-name="Line 437" x1="21.531" y1="12.426" transform="translate(1941.515 2838.719)" fill="none" stroke="#484646" stroke-linecap="round" stroke-miterlimit="10" stroke-width="1"/>
      <line id="Line_438" data-name="Line 438" x1="1.65" y1="0.949" transform="translate(1956.85 2915.253)" fill="none" stroke="#484646" stroke-linecap="round" stroke-miterlimit="10" stroke-width="1"/>
      <line id="Line_439" data-name="Line 439" x1="3.486" y1="2.007" transform="translate(1957.978 2912.235)" fill="none" stroke="#484646" stroke-linecap="round" stroke-miterlimit="10" stroke-width="1"/>
      <line id="Line_440" data-name="Line 440" x1="5.342" y1="3.087" transform="translate(1958.926 2909.113)" fill="none" stroke="#484646" stroke-linecap="round" stroke-miterlimit="10" stroke-width="1"/>
      <line id="Line_441" data-name="Line 441" x1="7.262" y1="4.202" transform="translate(1959.71 2905.887)" fill="none" stroke="#484646" stroke-linecap="round" stroke-miterlimit="10" stroke-width="1"/>
      <line id="Line_442" data-name="Line 442" x1="9.201" y1="5.329" transform="translate(1960.315 2902.574)" fill="none" stroke="#484646" stroke-linecap="round" stroke-miterlimit="10" stroke-width="1"/>
      <line id="Line_443" data-name="Line 443" x1="11.195" y1="6.47" transform="translate(1960.728 2899.143)" fill="none" stroke="#484646" stroke-linecap="round" stroke-miterlimit="10" stroke-width="1"/>
      <line id="Line_444" data-name="Line 444" x1="13.176" y1="7.605" transform="translate(1960.886 2895.574)" fill="none" stroke="#484646" stroke-linecap="round" stroke-miterlimit="10" stroke-width="1"/>
      <line id="Line_445" data-name="Line 445" x1="14.413" y1="8.341" transform="translate(1960.728 2891.798)" fill="none" stroke="#484646" stroke-linecap="round" stroke-miterlimit="10" stroke-width="1"/>
      <line id="Line_446" data-name="Line 446" x1="15.169" y1="8.761" transform="translate(1960.006 2887.713)" fill="none" stroke="#484646" stroke-linecap="round" stroke-miterlimit="10" stroke-width="1"/>
      <line id="Line_447" data-name="Line 447" x1="16.186" y1="9.353" transform="translate(1959.023 2883.477)" fill="none" stroke="#484646" stroke-linecap="round" stroke-miterlimit="10" stroke-width="1"/>
      <line id="Line_448" data-name="Line 448" x1="11.078" y1="6.388" transform="translate(1963.148 2882.206)" fill="none" stroke="#484646" stroke-linecap="round" stroke-miterlimit="10" stroke-width="1"/>
      <line id="Line_449" data-name="Line 449" x1="11.38" y1="6.587" transform="translate(1911.83 2920.782)" fill="none" stroke="#484646" stroke-linecap="round" stroke-miterlimit="10" stroke-width="1"/>
      <line id="Line_450" data-name="Line 450" x1="18.787" y1="10.852" transform="translate(1911.534 2916.958)" fill="none" stroke="#484646" stroke-linecap="round" stroke-miterlimit="10" stroke-width="1"/>
      <line id="Line_451" data-name="Line 451" x1="24.273" y1="14.007" transform="translate(1911.356 2913.184)" fill="none" stroke="#484646" stroke-linecap="round" stroke-miterlimit="10" stroke-width="1"/>
      <line id="Line_452" data-name="Line 452" x1="28.148" y1="16.246" transform="translate(1911.756 2909.744)" fill="none" stroke="#484646" stroke-linecap="round" stroke-miterlimit="10" stroke-width="1"/>
      <line id="Line_453" data-name="Line 453" x1="30.545" y1="17.643" transform="translate(1913.051 2906.821)" fill="none" stroke="#484646" stroke-linecap="round" stroke-miterlimit="10" stroke-width="1"/>
      <line id="Line_454" data-name="Line 454" x1="31.939" y1="18.456" transform="translate(1914.496 2903.979)" fill="none" stroke="#484646" stroke-linecap="round" stroke-miterlimit="10" stroke-width="1"/>
      <line id="Line_455" data-name="Line 455" x1="27.327" y1="15.782" transform="translate(1916.1 2901.246)" fill="none" stroke="#484646" stroke-linecap="round" stroke-miterlimit="10" stroke-width="1"/>
      <line id="Line_456" data-name="Line 456" x1="23.62" y1="13.644" transform="translate(1918.417 2898.915)" fill="none" stroke="#484646" stroke-linecap="round" stroke-miterlimit="10" stroke-width="1"/>
      <line id="Line_457" data-name="Line 457" x1="20.107" y1="11.606" transform="translate(1920.955 2896.702)" fill="none" stroke="#484646" stroke-linecap="round" stroke-miterlimit="10" stroke-width="1"/>
      <line id="Line_458" data-name="Line 458" x1="16.05" y1="9.27" transform="translate(1923.554 2894.528)" fill="none" stroke="#484646" stroke-linecap="round" stroke-miterlimit="10" stroke-width="1"/>
      <line id="Line_459" data-name="Line 459" x1="9.353" y1="5.399" transform="translate(1926.153 2892.369)" fill="none" stroke="#484646" stroke-linecap="round" stroke-miterlimit="10" stroke-width="1"/>
      <line id="Line_460" data-name="Line 460" x1="2.634" y1="4.559" transform="translate(1944.589 2899.748)" fill="none" stroke="#484646" stroke-linecap="round" stroke-miterlimit="10" stroke-width="1"/>
      <line id="Line_461" data-name="Line 461" x1="1.389" y1="2.4" transform="translate(1951.259 2898.585)" fill="none" stroke="#484646" stroke-linecap="round" stroke-miterlimit="10" stroke-width="1"/>
      <line id="Line_462" data-name="Line 462" x1="1.1" y1="1.911" transform="translate(1956.341 2894.68)" fill="none" stroke="#484646" stroke-linecap="round" stroke-miterlimit="10" stroke-width="1"/>
    </g>
    <rect id="Rectangle_36" data-name="Rectangle 36" width="94" height="94" transform="translate(-3994 3217)" fill="none"/>
  </g>
</svg>
