<svg xmlns="http://www.w3.org/2000/svg" width="94" height="94" viewBox="0 0 94 94">
  <g id="support-form-icon" transform="translate(0.131 0.282)">
    <g id="Group_291" data-name="Group 291" transform="translate(1.15 2.379)">
      <path id="Path_308" data-name="Path 308" d="M4157.288,425.438v.025l-.017.016" transform="translate(-4106.729 -355.595)" fill="none" stroke="#484646" stroke-linecap="round" stroke-linejoin="round" stroke-width="1" fill-rule="evenodd"/>
      <path id="Path_309" data-name="Path 309" d="M4191,280.945c0-.057.017-.116.017-.2v-.075c.041-.789.041-1.577.041-2.366a4.154,4.154,0,0,0-.014-.714c-.026-.63-.068-1.246-.125-1.835-.035-.374-.075-.748-.134-1.1a10.717,10.717,0,0,0-.215-1.346,16.664,16.664,0,0,0-4.684-9.431,9.035,9.035,0,0,0-.73-.648.308.308,0,0,0-.116-.1,5.577,5.577,0,0,0-.689-.515.761.761,0,0,0-.2-.141c-.1-.075-.2-.133-.292-.2-.108-.075-.2-.116-.3-.175a.949.949,0,0,0-.2-.132c-.142-.083-.3-.167-.457-.258-.041-.025-.075-.041-.116-.066-.016,0-.016-.016-.042-.016" transform="translate(-4123.549 -247.461)" fill="none" stroke="#484646" stroke-linecap="round" stroke-linejoin="round" stroke-width="1" fill-rule="evenodd"/>
      <path id="Path_310" data-name="Path 310" d="M4182.433,280.713a40.417,40.417,0,0,0,.331-5.04c0-8.386-3-14.273-7.812-16.93-.017-.025-.017-.025-.042-.025" transform="translate(-4118.373 -245.543)" fill="none" stroke="#484646" stroke-linecap="round" stroke-linejoin="round" stroke-width="1" fill-rule="evenodd"/>
      <path id="Path_311" data-name="Path 311" d="M4090.77,430.2a39.293,39.293,0,0,1-5.422,3.794c-7.265,4.2-13.842,4.559-18.557,1.736" transform="translate(-4047.002 -358.741)" fill="none" stroke="#484646" stroke-linecap="round" stroke-linejoin="round" stroke-width="1" fill-rule="evenodd"/>
      <path id="Path_312" data-name="Path 312" d="M4187.344,359.559c0-.025,0-.025.024-.032a.1.1,0,0,0,.017-.041" transform="translate(-4126.581 -312.059)" fill="none" stroke="#484646" stroke-linecap="round" stroke-linejoin="round" stroke-width="1" fill-rule="evenodd"/>
      <path id="Path_313" data-name="Path 313" d="M4071.958,235.551c-13.16-6.55-28.778,5.613-36.905,15.112-10.9,12.727-20.235,33.527-16.9,50.4,1.087,5.489,3.5,10.271,8.252,13.418-2.133-1.228-8.353-4.648-10.014-5.886-10.262-7.755-8.568-25-5.33-35.769,4.725-15.583,15.56-31.492,29.707-39.879" transform="translate(-4008.573 -228.528)" fill="none" stroke="#484646" stroke-linecap="round" stroke-linejoin="round" stroke-width="1" fill-rule="evenodd"/>
      <path id="Path_314" data-name="Path 314" d="M4182.751,261.625c.025,0,.025.016.042.016.041.025.075.041.116.066.158.091.315.175.457.258a.949.949,0,0,1,.2.132c.1.059.191.1.3.175.091.067.191.124.292.2a.761.761,0,0,1,.2.141,5.577,5.577,0,0,1,.689.515.308.308,0,0,1,.116.1,9.035,9.035,0,0,1,.73.648" transform="translate(-4123.549 -247.461)" fill="none" stroke="#484646" stroke-linecap="round" stroke-linejoin="round" stroke-width="1" fill-rule="evenodd"/>
      <path id="Path_315" data-name="Path 315" d="M4204.393,265.634q.174-2.067.174-4.086c0-10.279-3.6-17.5-9.433-20.856-.175-.1-.374-.216-.548-.324-.1-.033-.182-.075-.282-.116" transform="translate(-4131.175 -233.353)" fill="none" stroke="#484646" stroke-linecap="round" stroke-linejoin="round" stroke-width="1" fill-rule="evenodd"/>
      <path id="Path_316" data-name="Path 316" d="M4096.494,258.851a12.23,12.23,0,0,0-2.605-.963c-.017-.024-.017-.024-.042-.024a11.551,11.551,0,0,0-1.736-.315h-.016a15.124,15.124,0,0,0-3.538-.042,25.669,25.669,0,0,0-10.088,3.537,44.752,44.752,0,0,0-10.08,8.113,63.579,63.579,0,0,0-8.569,11.566,62.888,62.888,0,0,0-5.729,13.21,45.441,45.441,0,0,0-1.985,12.786,25.6,25.6,0,0,0,1.985,10.5,17.038,17.038,0,0,0,1.818,3.1,13.981,13.981,0,0,0,1.163,1.337" transform="translate(-4037.31 -244.687)" fill="none" stroke="#484646" stroke-linecap="round" stroke-linejoin="round" stroke-width="1" fill-rule="evenodd"/>
      <path id="Path_317" data-name="Path 317" d="M4101.878,342.737l2.333.673.091.016-2.325,4.956-.557-.157-1-.274-1.32-.4-13.716-3.9,2.325-4.958,14.073,4.027" transform="translate(-4059.274 -298.334)" fill="none" stroke="#484646" stroke-linecap="round" stroke-linejoin="round" stroke-width="1" fill-rule="evenodd"/>
      <path id="Path_318" data-name="Path 318" d="M4136.252,304.776l13.342-23.132.174-.315-.257-.143v-.016l-.373-.224-1.378-.78L4133.918,304.1" transform="translate(-4091.314 -259.7)" fill="none" stroke="#484646" stroke-linecap="round" stroke-linejoin="round" stroke-width="1" fill-rule="evenodd"/>
      <path id="Path_319" data-name="Path 319" d="M4122.917,365.433l-1.953,3.371-.986,1.718-2.035-1.162,2.648-4.6" transform="translate(-4080.769 -315.542)" fill="none" stroke="#484646" stroke-linecap="round" stroke-linejoin="round" stroke-width="1" fill-rule="evenodd"/>
      <path id="Path_320" data-name="Path 320" d="M4246.641,326.334c-.217-.058-.45-.117-.691-.166-.016-.016-.041-.016-.074-.016-.315-.058-.657-.117-.972-.158a2.248,2.248,0,0,0-.332-.016,7.262,7.262,0,0,0-.946-.058" transform="translate(-4163.734 -289.902)" fill="none" stroke="#484646" stroke-linecap="round" stroke-linejoin="round" stroke-width="1" fill-rule="evenodd"/>
      <path id="Path_321" data-name="Path 321" d="M4228.772,325.919c-.217,0-.416.017-.632.033a10.707,10.707,0,0,0-1.228.141c-.355.042-.689.124-1.046.2a.09.09,0,0,0-.058.016c-.348.084-.689.183-1.045.274-.574.167-1.138.383-1.736.615-.456.183-.93.4-1.361.589" transform="translate(-4149.237 -289.902)" fill="none" stroke="#484646" stroke-linecap="round" stroke-linejoin="round" stroke-width="1" fill-rule="evenodd"/>
      <path id="Path_322" data-name="Path 322" d="M4209.555,331.467c-.016-.024-.016,0-.016,0-.458.216-.889.432-1.33.689-.133.059-.273.141-.407.217a28.767,28.767,0,0,0-3.736,2.549,8.991,8.991,0,0,0-.747.613" transform="translate(-4137.126 -293.557)" fill="none" stroke="#484646" stroke-linecap="round" stroke-linejoin="round" stroke-width="1" fill-rule="evenodd"/>
      <path id="Path_323" data-name="Path 323" d="M4156.676,425.512a4.066,4.066,0,0,0-.074.515.127.127,0,0,0-.042.116c-.058.573-.1,1.121-.141,1.693a1.267,1.267,0,0,0-.017.258c-.041.589-.057,1.179-.057,1.777a22.432,22.432,0,0,0,.472,4.774,9.4,9.4,0,0,0,.349,1.4,1.629,1.629,0,0,0,.083.316,3.986,3.986,0,0,0,.241.63,2.974,2.974,0,0,0,.191.54q.211.524.473,1.022a6.067,6.067,0,0,0,.416.746c.1.183.216.357.34.54.092.133.2.29.315.432a4.666,4.666,0,0,0,.474.614.783.783,0,0,0,.133.174c.141.159.3.316.44.457a8.239,8.239,0,0,0,.729.673" transform="translate(-4106.118 -355.644)" fill="none" stroke="#484646" stroke-linecap="round" stroke-linejoin="round" stroke-width="1" fill-rule="evenodd"/>
      <path id="Path_324" data-name="Path 324" d="M4156.324,466.3l-6.459-3.737-.607-.532" transform="translate(-4101.44 -379.752)" fill="none" stroke="#484646" stroke-linecap="round" stroke-linejoin="round" stroke-width="1" fill-rule="evenodd"/>
      <path id="Path_325" data-name="Path 325" d="M4141.337,370.569a10.066,10.066,0,0,1-1.444-1.735,13.043,13.043,0,0,1-1.03-1.776,16.96,16.96,0,0,1-1.12-3.438v-.041a22.485,22.485,0,0,1-.457-3.828,24.669,24.669,0,0,1,.083-3.438,36.466,36.466,0,0,1,1.46-7.514,49.11,49.11,0,0,1,10.263-18.216c-.018-.026.016-.043.016-.043a39.782,39.782,0,0,1,3.5-3.5,30.75,30.75,0,0,1,4.974-3.57" transform="translate(-4093.52 -288.289)" fill="none" stroke="#484646" stroke-linecap="round" stroke-linejoin="round" stroke-width="1" fill-rule="evenodd"/>
      <path id="Path_326" data-name="Path 326" d="M4197.042,317.818a24.521,24.521,0,0,1,3.395-1.686h.017a17.318,17.318,0,0,1,3.753-1.038,12.136,12.136,0,0,1,1.994-.165,11.913,11.913,0,0,1,3.221.415" transform="translate(-4132.983 -282.648)" fill="none" stroke="#484646" stroke-linecap="round" stroke-linejoin="round" stroke-width="1" fill-rule="evenodd"/>
      <path id="Path_327" data-name="Path 327" d="M4233.464,316.15l.763.256,6.477,3.728" transform="translate(-4157.026 -283.454)" fill="none" stroke="#484646" stroke-linecap="round" stroke-linejoin="round" stroke-width="1" fill-rule="evenodd"/>
      <path id="Path_328" data-name="Path 328" d="M4176.745,375.937c11.284-6.518,20.442-22.368,20.442-35.412s-9.158-18.333-20.442-11.815c-11.3,6.518-20.475,22.384-20.475,35.428S4165.445,382.455,4176.745,375.937Z" transform="translate(-4106.069 -289.904)" fill="none" stroke="#484646" stroke-linecap="round" stroke-linejoin="round" stroke-width="1" fill-rule="evenodd"/>
      <path id="Path_329" data-name="Path 329" d="M4183.566,388.815c2.293-1.329,4.6-2.658,7.365-4.252a1.16,1.16,0,0,1,1.835,1.063v4.251a4.413,4.413,0,0,1-1.835,3.189c-2.307,1.319-4.143,2.382-5.978,3.445a4.441,4.441,0,0,0-1.859,3.188v3.18c0,1.595.871,2,1.859,1.595a70.122,70.122,0,0,0,7.813-3.977" transform="translate(-4123.775 -328.479)" fill="none" stroke="#484646" stroke-linecap="round" stroke-linejoin="round" stroke-width="1" fill-rule="evenodd"/>
      <path id="Path_330" data-name="Path 330" d="M4224.061,374.651v6.377c0,1.056.921,1.587,2.307.789,2.308-1.328,4.6-2.649,7.357-4.242" transform="translate(-4150.818 -322.071)" fill="none" stroke="#484646" stroke-linecap="round" stroke-linejoin="round" stroke-width="1" fill-rule="evenodd"/>
      <path id="Path_331" data-name="Path 331" d="M4185.08,263.513c-.017-.025-.042-.042-.059-.066l.141-.258Z" transform="translate(-4125.047 -248.493)" fill="none" stroke="#484646" stroke-linecap="round" stroke-linejoin="round" stroke-width="1" fill-rule="evenodd"/>
      <path id="Path_332" data-name="Path 332" d="M4185.1,263.585a.544.544,0,0,0-.075-.066l.141-.282Z" transform="translate(-4125.047 -248.525)" fill="none" stroke="#484646" stroke-linecap="round" stroke-miterlimit="22.926" stroke-width="1" fill-rule="evenodd"/>
      <path id="Path_333" data-name="Path 333" d="M4103.31,224.369c6.576-3.685,15.1-6.384,22.243-2.557" transform="translate(-4071.109 -219.953)" fill="none" stroke="#484646" stroke-linecap="round" stroke-linejoin="round" stroke-width="1" fill-rule="evenodd"/>
      <line id="Line_280" data-name="Line 280" x2="8.943" y2="5.165" transform="translate(54.443 1.858)" fill="none" stroke="#484646" stroke-linecap="round" stroke-linejoin="round" stroke-width="1"/>
      <line id="Line_281" data-name="Line 281" x1="0.731" y2="2.781" transform="translate(42.504 41.604)" fill="none" stroke="#484646" stroke-linecap="round" stroke-linejoin="round" stroke-width="1"/>
      <line id="Line_282" data-name="Line 282" x1="5.529" y2="21.221" transform="translate(34.667 53.262)" fill="none" stroke="#484646" stroke-linecap="round" stroke-linejoin="round" stroke-width="1"/>
      <path id="Path_334" data-name="Path 334" d="M4252.5,358.264V375.25" transform="translate(-4169.588 -311.253)" fill="none" stroke="#484646" stroke-linecap="round" stroke-linejoin="round" stroke-width="1" fill-rule="evenodd"/>
      <path id="Path_335" data-name="Path 335" d="M4061.049,462.331a5.235,5.235,0,0,0,.531.341c5.845,3.354,13.892,2.88,22.792-2.276a51.421,51.421,0,0,0,5.214-3.47" transform="translate(-4043.213 -376.381)" fill="none" stroke="#484646" stroke-linecap="round" stroke-linejoin="round" stroke-width="1" fill-rule="evenodd"/>
      <path id="Path_336" data-name="Path 336" d="M4096.515,441.586a31.036,31.036,0,0,1-4.385,2.665c-.448.216-.888.44-1.319.657-.432.19-.848.389-1.3.548-.432.183-.846.331-1.262.472-.358.117-.689.241-1.029.333-.274.082-.532.166-.789.224-.233.057-.449.116-.673.157-.432.091-.847.175-1.262.233-.356.058-.748.125-1.121.157-.083,0-.141.025-.224.025h-.091c-.44.034-.889.057-1.3.057a6.581,6.581,0,0,1-.689-.024c-.224,0-.457-.017-.673-.034a4.316,4.316,0,0,1-.457-.041c-.3-.041-.572-.083-.864-.141a9.431,9.431,0,0,1-1.743-.415.36.36,0,0,1-.133-.033,10.956,10.956,0,0,1-1.56-.64c-.274-.133-.557-.274-.831-.432" transform="translate(-4052.292 -366.255)" fill="none" stroke="#484646" stroke-linecap="round" stroke-linejoin="round" stroke-width="1" fill-rule="evenodd"/>
      <path id="Path_337" data-name="Path 337" d="M4066.79,443.167c6.954,7.1,17.554,3.186,24.437-1.7" transform="translate(-4047.002 -366.175)" fill="none" stroke="#484646" stroke-linecap="round" stroke-linejoin="round" stroke-width="1" fill-rule="evenodd"/>
      <path id="Path_338" data-name="Path 338" d="M4172.93,343.557c-7.375,4.834-14.339,19.041-15.61,27.831" transform="translate(-4106.762 -301.545)" fill="none" stroke="#484646" stroke-linecap="round" stroke-linejoin="round" stroke-width="1" fill-rule="evenodd"/>
      <line id="Line_283" data-name="Line 283" x1="5.231" y1="3.023" transform="translate(44.838 75.48)" fill="none" stroke="#484646" stroke-linecap="round" stroke-miterlimit="10" stroke-width="1"/>
      <line id="Line_284" data-name="Line 284" x1="5.547" y1="3.205" transform="translate(44.539 66.455)" fill="none" stroke="#484646" stroke-linecap="round" stroke-miterlimit="10" stroke-width="1"/>
      <line id="Line_285" data-name="Line 285" x1="5.604" y1="3.239" transform="translate(46.432 58.684)" fill="none" stroke="#484646" stroke-linecap="round" stroke-miterlimit="10" stroke-width="1"/>
      <line id="Line_286" data-name="Line 286" x1="5.621" y1="3.247" transform="translate(49.595 51.642)" fill="none" stroke="#484646" stroke-linecap="round" stroke-miterlimit="10" stroke-width="1"/>
      <line id="Line_287" data-name="Line 287" x1="5.604" y1="3.238" transform="translate(53.797 45.208)" fill="none" stroke="#484646" stroke-linecap="round" stroke-miterlimit="10" stroke-width="1"/>
      <line id="Line_288" data-name="Line 288" x1="5.588" y1="3.23" transform="translate(59.102 39.412)" fill="none" stroke="#484646" stroke-linecap="round" stroke-miterlimit="10" stroke-width="1"/>
      <line id="Line_289" data-name="Line 289" x1="5.389" y1="3.114" transform="translate(66.168 34.639)" fill="none" stroke="#484646" stroke-linecap="round" stroke-miterlimit="10" stroke-width="1"/>
      <line id="Line_290" data-name="Line 290" x1="1.819" y1="1.045" transform="translate(64.988 32.024)" fill="none" stroke="#484646" stroke-linecap="round" stroke-miterlimit="10" stroke-width="1"/>
      <line id="Line_291" data-name="Line 291" x1="1.835" y1="1.047" transform="translate(64.947 27.581)" fill="none" stroke="#484646" stroke-linecap="round" stroke-miterlimit="10" stroke-width="1"/>
      <line id="Line_292" data-name="Line 292" x1="1.669" y1="0.954" transform="translate(64.142 22.683)" fill="none" stroke="#484646" stroke-linecap="round" stroke-miterlimit="10" stroke-width="1"/>
      <line id="Line_293" data-name="Line 293" x1="0.514" y1="0.299" transform="translate(61.41 16.671)" fill="none" stroke="#484646" stroke-linecap="round" stroke-miterlimit="10" stroke-width="1"/>
      <path id="Path_339" data-name="Path 339" d="M4185.1,263.585a.544.544,0,0,0-.075-.066l.141-.282Z" transform="translate(-4125.047 -248.525)" fill="none" stroke="#484646" stroke-linecap="round" stroke-miterlimit="22.926" stroke-width="1" fill-rule="evenodd"/>
      <line id="Line_294" data-name="Line 294" x1="1.005" y1="0.58" transform="translate(26.837 79.508)" fill="none" stroke="#484646" stroke-linecap="round" stroke-miterlimit="10" stroke-width="1"/>
      <line id="Line_295" data-name="Line 295" x1="1.695" y1="0.988" transform="translate(32.74 78.486)" fill="none" stroke="#484646" stroke-linecap="round" stroke-miterlimit="10" stroke-width="1"/>
      <line id="Line_296" data-name="Line 296" x1="1.86" y1="1.072" transform="translate(37.174 76.618)" fill="none" stroke="#484646" stroke-linecap="round" stroke-miterlimit="10" stroke-width="1"/>
      <line id="Line_297" data-name="Line 297" x1="1.901" y1="1.104" transform="translate(40.943 74.36)" fill="none" stroke="#484646" stroke-linecap="round" stroke-miterlimit="10" stroke-width="1"/>
      <line id="Line_298" data-name="Line 298" x1="4.226" y2="7.306" transform="translate(67.828 20.217)" fill="none" stroke="#484646" stroke-linecap="round" stroke-miterlimit="10" stroke-width="1"/>
      <line id="Line_299" data-name="Line 299" x1="4.227" y2="7.298" transform="translate(33.579 79.532)" fill="none" stroke="#484646" stroke-linecap="round" stroke-miterlimit="10" stroke-width="1"/>
      <line id="Line_300" data-name="Line 300" x1="3.735" y2="6.477" transform="translate(64.433 11.589)" fill="none" stroke="#484646" stroke-linecap="round" stroke-miterlimit="10" stroke-width="1"/>
      <line id="Line_301" data-name="Line 301" x1="3.753" y2="6.51" transform="translate(24.188 81.268)" fill="none" stroke="#484646" stroke-linecap="round" stroke-miterlimit="10" stroke-width="1"/>
      <line id="Line_302" data-name="Line 302" x1="3.671" y2="6.368" transform="translate(58.338 6.899)" fill="none" stroke="#484646" stroke-linecap="round" stroke-miterlimit="10" stroke-width="1"/>
      <line id="Line_303" data-name="Line 303" x1="3.671" y2="6.368" transform="translate(17.04 78.437)" fill="none" stroke="#484646" stroke-linecap="round" stroke-miterlimit="10" stroke-width="1"/>
      <line id="Line_304" data-name="Line 304" x1="3.886" y2="6.724" transform="translate(49.928 5.77)" fill="none" stroke="#484646" stroke-linecap="round" stroke-miterlimit="10" stroke-width="1"/>
      <line id="Line_305" data-name="Line 305" x1="3.885" y2="6.75" transform="translate(11.95 71.521)" fill="none" stroke="#484646" stroke-linecap="round" stroke-miterlimit="10" stroke-width="1"/>
      <line id="Line_306" data-name="Line 306" x1="4.856" y2="8.428" transform="translate(38.105 9.215)" fill="none" stroke="#484646" stroke-linecap="round" stroke-miterlimit="10" stroke-width="1"/>
      <line id="Line_307" data-name="Line 307" x1="4.857" y2="8.428" transform="translate(9.525 58.708)" fill="none" stroke="#484646" stroke-linecap="round" stroke-miterlimit="10" stroke-width="1"/>
      <line id="Line_308" data-name="Line 308" x1="10.71" y2="18.573" transform="translate(14.325 24.9)" fill="none" stroke="#484646" stroke-linecap="round" stroke-miterlimit="10" stroke-width="1"/>
      <line id="Line_309" data-name="Line 309" x1="6.709" y1="3.87" transform="translate(5.142 76.509)" fill="none" stroke="#484646" stroke-linecap="round" stroke-miterlimit="10" stroke-width="1"/>
      <line id="Line_310" data-name="Line 310" x1="7.698" y1="4.442" transform="translate(1.886 70.191)" fill="none" stroke="#484646" stroke-linecap="round" stroke-miterlimit="10" stroke-width="1"/>
      <line id="Line_311" data-name="Line 311" x1="7.93" y1="4.576" transform="translate(0.782 65.127)" fill="none" stroke="#484646" stroke-linecap="round" stroke-miterlimit="10" stroke-width="1"/>
      <line id="Line_312" data-name="Line 312" x1="8.037" y1="4.641" transform="translate(0.483 60.519)" fill="none" stroke="#484646" stroke-linecap="round" stroke-miterlimit="10" stroke-width="1"/>
      <line id="Line_313" data-name="Line 313" x1="8.112" y1="4.682" transform="translate(0.641 56.185)" fill="none" stroke="#484646" stroke-linecap="round" stroke-miterlimit="10" stroke-width="1"/>
      <line id="Line_314" data-name="Line 314" x1="8.154" y1="4.707" transform="translate(1.156 52.042)" fill="none" stroke="#484646" stroke-linecap="round" stroke-miterlimit="10" stroke-width="1"/>
      <line id="Line_315" data-name="Line 315" x1="8.211" y1="4.748" transform="translate(1.945 48.065)" fill="none" stroke="#484646" stroke-linecap="round" stroke-miterlimit="10" stroke-width="1"/>
      <line id="Line_316" data-name="Line 316" x1="8.254" y1="4.766" transform="translate(2.966 44.228)" fill="none" stroke="#484646" stroke-linecap="round" stroke-miterlimit="10" stroke-width="1"/>
      <line id="Line_317" data-name="Line 317" x1="8.287" y1="4.782" transform="translate(4.195 40.517)" fill="none" stroke="#484646" stroke-linecap="round" stroke-miterlimit="10" stroke-width="1"/>
      <line id="Line_318" data-name="Line 318" x1="8.31" y1="4.799" transform="translate(5.632 36.906)" fill="none" stroke="#484646" stroke-linecap="round" stroke-miterlimit="10" stroke-width="1"/>
      <line id="Line_319" data-name="Line 319" x1="8.311" y1="4.799" transform="translate(7.234 33.401)" fill="none" stroke="#484646" stroke-linecap="round" stroke-miterlimit="10" stroke-width="1"/>
      <line id="Line_320" data-name="Line 320" x1="8.31" y1="4.791" transform="translate(8.995 29.989)" fill="none" stroke="#484646" stroke-linecap="round" stroke-miterlimit="10" stroke-width="1"/>
      <line id="Line_321" data-name="Line 321" x1="8.304" y1="4.8" transform="translate(10.928 26.676)" fill="none" stroke="#484646" stroke-linecap="round" stroke-miterlimit="10" stroke-width="1"/>
      <line id="Line_322" data-name="Line 322" x1="8.286" y1="4.791" transform="translate(13.038 23.455)" fill="none" stroke="#484646" stroke-linecap="round" stroke-miterlimit="10" stroke-width="1"/>
      <line id="Line_323" data-name="Line 323" x1="8.295" y1="4.79" transform="translate(15.304 20.342)" fill="none" stroke="#484646" stroke-linecap="round" stroke-miterlimit="10" stroke-width="1"/>
      <line id="Line_324" data-name="Line 324" x1="8.269" y1="4.773" transform="translate(17.754 17.328)" fill="none" stroke="#484646" stroke-linecap="round" stroke-miterlimit="10" stroke-width="1"/>
      <line id="Line_325" data-name="Line 325" x1="8.244" y1="4.757" transform="translate(20.402 14.422)" fill="none" stroke="#484646" stroke-linecap="round" stroke-miterlimit="10" stroke-width="1"/>
      <line id="Line_326" data-name="Line 326" x1="8.238" y1="4.75" transform="translate(23.258 11.639)" fill="none" stroke="#484646" stroke-linecap="round" stroke-miterlimit="10" stroke-width="1"/>
      <line id="Line_327" data-name="Line 327" x1="8.195" y1="4.723" transform="translate(26.339 8.992)" fill="none" stroke="#484646" stroke-linecap="round" stroke-miterlimit="10" stroke-width="1"/>
      <line id="Line_328" data-name="Line 328" x1="8.145" y1="4.716" transform="translate(29.718 6.509)" fill="none" stroke="#484646" stroke-linecap="round" stroke-miterlimit="10" stroke-width="1"/>
      <line id="Line_329" data-name="Line 329" x1="8.054" y1="4.641" transform="translate(33.462 4.242)" fill="none" stroke="#484646" stroke-linecap="round" stroke-miterlimit="10" stroke-width="1"/>
      <line id="Line_330" data-name="Line 330" x1="7.88" y1="4.558" transform="translate(37.763 2.291)" fill="none" stroke="#484646" stroke-linecap="round" stroke-miterlimit="10" stroke-width="1"/>
      <line id="Line_331" data-name="Line 331" x1="7.639" y1="4.401" transform="translate(42.937 0.854)" fill="none" stroke="#484646" stroke-linecap="round" stroke-miterlimit="10" stroke-width="1"/>
      <line id="Line_332" data-name="Line 332" x1="5.845" y1="3.379" transform="translate(51.347 1.269)" fill="none" stroke="#484646" stroke-linecap="round" stroke-miterlimit="10" stroke-width="1"/>
      <line id="Line_333" data-name="Line 333" x1="0.872" y1="0.506" transform="translate(45.385 40.949)" fill="none" stroke="#484646" stroke-linecap="round" stroke-miterlimit="10" stroke-width="1"/>
      <line id="Line_334" data-name="Line 334" x1="0.888" y1="0.506" transform="translate(47.304 37.628)" fill="none" stroke="#484646" stroke-linecap="round" stroke-miterlimit="10" stroke-width="1"/>
      <line id="Line_335" data-name="Line 335" x1="0.888" y1="0.498" transform="translate(49.214 34.307)" fill="none" stroke="#484646" stroke-linecap="round" stroke-miterlimit="10" stroke-width="1"/>
      <line id="Line_336" data-name="Line 336" x1="0.872" y1="0.506" transform="translate(51.148 30.977)" fill="none" stroke="#484646" stroke-linecap="round" stroke-miterlimit="10" stroke-width="1"/>
      <line id="Line_337" data-name="Line 337" x1="0.872" y1="0.499" transform="translate(53.065 27.664)" fill="none" stroke="#484646" stroke-linecap="round" stroke-miterlimit="10" stroke-width="1"/>
      <line id="Line_338" data-name="Line 338" x1="0.872" y1="0.499" transform="translate(54.975 24.342)" fill="none" stroke="#484646" stroke-linecap="round" stroke-miterlimit="10" stroke-width="1"/>
      <line id="Line_339" data-name="Line 339" x1="2.191" y2="3.819" transform="translate(40.08 44.893)" fill="none" stroke="#484646" stroke-linecap="round" stroke-miterlimit="10" stroke-width="1"/>
      <line id="Line_340" data-name="Line 340" x1="2.209" y2="3.819" transform="translate(36.269 43.805)" fill="none" stroke="#484646" stroke-linecap="round" stroke-miterlimit="10" stroke-width="1"/>
      <line id="Line_341" data-name="Line 341" x1="2.209" y2="3.819" transform="translate(32.458 42.717)" fill="none" stroke="#484646" stroke-linecap="round" stroke-miterlimit="10" stroke-width="1"/>
      <line id="Line_342" data-name="Line 342" x1="2.21" y2="3.827" transform="translate(28.646 41.622)" fill="none" stroke="#484646" stroke-linecap="round" stroke-miterlimit="10" stroke-width="1"/>
      <line id="Line_343" data-name="Line 343" x1="0.889" y1="0.515" transform="translate(39.739 50.712)" fill="none" stroke="#484646" stroke-linecap="round" stroke-miterlimit="10" stroke-width="1"/>
    </g>
    <rect id="Rectangle_37" data-name="Rectangle 37" width="94" height="94" transform="translate(-0.131 -0.282)" fill="none"/>
  </g>
</svg>
